<svg width="240" height="322" viewBox="0 0 240 322" fill="none" xmlns="http://www.w3.org/2000/svg">
<mask id="mask0_50_577" style="mask-type:alpha" maskUnits="userSpaceOnUse" x="0" y="0" width="240" height="322">
<rect width="240" height="322" fill="#D9D9D9"/>
</mask>
<g mask="url(#mask0_50_577)">
<path fill-rule="evenodd" clip-rule="evenodd" d="M241 313C384.042 313 500 197.042 500 54C500 -89.0417 384.042 -205 241 -205C97.9583 -205 -18 -89.0417 -18 54C-18 197.042 97.9583 313 241 313ZM241 314C384.594 314 501 197.594 501 54C501 -89.594 384.594 -206 241 -206C97.406 -206 -19 -89.594 -19 54C-19 197.594 97.406 314 241 314ZM464.138 54C464.138 177.236 364.236 277.138 241 277.138C117.764 277.138 17.8621 177.236 17.8621 54C17.8621 -69.2357 117.764 -169.138 241 -169.138C364.236 -169.138 464.138 -69.2357 464.138 54ZM465.138 54C465.138 177.788 364.788 278.138 241 278.138C117.212 278.138 16.8621 177.788 16.8621 54C16.8621 -69.7879 117.212 -170.138 241 -170.138C364.788 -170.138 465.138 -69.7879 465.138 54ZM241 241.276C344.43 241.276 428.276 157.43 428.276 54C428.276 -49.4296 344.43 -133.276 241 -133.276C137.57 -133.276 53.7242 -49.4296 53.7242 54C53.7242 157.43 137.57 241.276 241 241.276ZM241 242.276C344.982 242.276 429.276 157.982 429.276 54C429.276 -49.9819 344.982 -134.276 241 -134.276C137.018 -134.276 52.7242 -49.9819 52.7242 54C52.7242 157.982 137.018 242.276 241 242.276ZM392.414 54C392.414 137.624 324.624 205.414 241 205.414C157.376 205.414 89.5862 137.624 89.5862 54C89.5862 -29.6235 157.376 -97.4138 241 -97.4138C324.624 -97.4138 392.414 -29.6235 392.414 54ZM393.414 54C393.414 138.176 325.176 206.414 241 206.414C156.824 206.414 88.5862 138.176 88.5862 54C88.5862 -30.1758 156.824 -98.4138 241 -98.4138C325.176 -98.4138 393.414 -30.1758 393.414 54ZM241 169.552C304.817 169.552 356.552 117.817 356.552 54C356.552 -9.81746 304.817 -61.5517 241 -61.5517C177.183 -61.5517 125.448 -9.81746 125.448 54C125.448 117.817 177.183 169.552 241 169.552ZM241 170.552C305.37 170.552 357.552 118.37 357.552 54C357.552 -10.3698 305.37 -62.5517 241 -62.5517C176.63 -62.5517 124.448 -10.3698 124.448 54C124.448 118.37 176.63 170.552 241 170.552ZM241 133.69C285.011 133.69 320.69 98.0114 320.69 54C320.69 9.98863 285.011 -25.6896 241 -25.6896C196.989 -25.6896 161.31 9.98863 161.31 54C161.31 98.0114 196.989 133.69 241 133.69ZM241 134.69C285.564 134.69 321.69 98.5637 321.69 54C321.69 9.43636 285.564 -26.6896 241 -26.6896C196.436 -26.6896 160.31 9.43636 160.31 54C160.31 98.5637 196.436 134.69 241 134.69ZM284.828 54C284.828 78.2053 265.205 97.8276 241 97.8276C216.795 97.8276 197.172 78.2053 197.172 54C197.172 29.7947 216.795 10.1724 241 10.1724C265.205 10.1724 284.828 29.7947 284.828 54ZM285.828 54C285.828 78.7576 265.758 98.8276 241 98.8276C216.242 98.8276 196.172 78.7576 196.172 54C196.172 29.2424 216.242 9.17239 241 9.17239C265.758 9.17239 285.828 29.2424 285.828 54Z" fill="url(#paint0_linear_50_577)"/>
</g>
<defs>
<linearGradient id="paint0_linear_50_577" x1="26" y1="448.5" x2="192" y2="30.0001" gradientUnits="userSpaceOnUse">
<stop stop-color="white" stop-opacity="0.17"/>
<stop offset="1" stop-color="white" stop-opacity="0"/>
</linearGradient>
</defs>
</svg>
