<svg width="18" height="18" viewBox="0 0 18 18" fill="none" xmlns="http://www.w3.org/2000/svg">
<path d="M2.8375 2C1.54848 2 0.5 3.0489 0.5 4.3375V6.8875V13.2625C0.5 14.5511 1.54848 15.6 2.8375 15.6H15.1625C16.4515 15.6 17.5 14.5511 17.5 13.2625V6.8875V4.3375C17.5 3.0489 16.4515 2 15.1625 2H2.8375ZM2.8375 3.275H15.1625C15.7482 3.275 16.225 3.75143 16.225 4.3375V4.81064C15.9053 4.64549 15.5447 4.55 15.1625 4.55H2.8375C2.45534 4.55 2.09472 4.64549 1.775 4.81064V4.3375C1.775 3.75143 2.25185 3.275 2.8375 3.275ZM2.8375 5.825H15.1625C15.7567 5.825 16.225 6.29325 16.225 6.8875V7.35566C15.9063 7.19204 15.545 7.1 15.1625 7.1H11.6272C10.9893 7.1 10.4194 7.51949 10.2094 8.14424C10.0347 8.66359 9.54868 9.0125 9 9.0125C8.45133 9.0125 7.96566 8.66359 7.79141 8.14424C7.58146 7.51949 7.01115 7.1 6.3728 7.1H2.8375C2.455 7.1 2.09375 7.19204 1.775 7.35566V6.8875C1.775 6.29325 2.24325 5.825 2.8375 5.825Z" fill="white"/>
</svg>
