<svg width="18" height="18" viewBox="0 0 18 18" fill="none" xmlns="http://www.w3.org/2000/svg">
<g clip-path="url(#clip0_74_682)">
<path d="M15.0001 11.4825L16.7755 9.70706C17.166 9.31654 17.166 8.68337 16.7755 8.29285L15.0001 6.51746V3.99996C15.0001 3.44767 14.5524 2.99996 14.0001 2.99996H11.4826L9.70718 1.22456C9.31666 0.834038 8.6835 0.834038 8.29297 1.22456L6.51758 2.99996H4.00008C3.44779 2.99996 3.00008 3.44767 3.00008 3.99996V6.51746L1.22468 8.29285C0.83416 8.68337 0.83416 9.31654 1.22468 9.70706L3.00008 11.4825V14C3.00008 14.5522 3.44779 15 4.00008 15H6.51758L8.29297 16.7753C8.6835 17.1659 9.31666 17.1659 9.70718 16.7753L11.4826 15H14.0001C14.5524 15 15.0001 14.5522 15.0001 14V11.4825ZM9.00008 13.5C6.51758 13.5 4.50008 11.4825 4.50008 8.99996C4.50008 6.51746 6.51758 4.49996 9.00008 4.49996C11.4826 4.49996 13.5001 6.51746 13.5001 8.99996C13.5001 11.4825 11.4826 13.5 9.00008 13.5Z" fill="white"/>
</g>
<defs>
<clipPath id="clip0_74_682">
<rect width="18" height="18" fill="white"/>
</clipPath>
</defs>
</svg>
